<?xml version="1.0" encoding="UTF-8" standalone="no"?>
<svg
   version="1.1"
   width="1024"
   height="1024"
   id="svg1"
   sodipodi:docname="Midjourney_Emblem.svg"
   xml:space="preserve"
   inkscape:version="1.3 (0e150ed6c4, 2023-07-21)"
   xmlns:inkscape="http://www.inkscape.org/namespaces/inkscape"
   xmlns:sodipodi="http://sodipodi.sourceforge.net/DTD/sodipodi-0.dtd"
   xmlns="http://www.w3.org/2000/svg"
   xmlns:svg="http://www.w3.org/2000/svg"><defs
     id="defs1" /><sodipodi:namedview
     id="namedview1"
     pagecolor="#ffffff"
     bordercolor="#000000"
     borderopacity="0.25"
     inkscape:showpageshadow="2"
     inkscape:pageopacity="0.0"
     inkscape:pagecheckerboard="0"
     inkscape:deskcolor="#d1d1d1"
     inkscape:zoom="0.75889683"
     inkscape:cx="110.68698"
     inkscape:cy="623.27313"
     inkscape:window-width="2560"
     inkscape:window-height="1334"
     inkscape:window-x="-11"
     inkscape:window-y="-11"
     inkscape:window-maximized="1"
     inkscape:current-layer="svg1" /><rect
     style="fill:#ffffff;fill-opacity:1;stroke:none;stroke-width:6.04724;stroke-linecap:round"
     id="rect8"
     width="1024"
     height="1024"
     x="0"
     y="0"
     inkscape:label="background" /><path
     id="path1"
     style="stroke-width:0.713633;fill:#770088;fill-opacity:1"
     d="M 408.72852 318.46094 L 328.9043 384.24023 C 346.60334 471.83152 337.19662 570.71574 265.30078 662.09961 C 311.68089 633.48084 370.01377 610.66191 440.50586 609.0332 L 561.90625 508.99023 C 524.03118 433.00402 468.036 368.24428 408.72852 318.46094 z "
     inkscape:label="purple" /><path
     id="path2"
     style="stroke-width:0.713633;fill:#004cff;fill-opacity:1"
     d="M 408.72852 318.46094 L 328.9043 384.24023 C 346.60334 471.83152 337.19662 570.71574 265.30078 662.09961 C 293.55378 644.66614 326.26398 629.40979 363.43164 619.75391 L 541.94922 472.64453 C 505.62546 412.24152 458.34095 360.10615 408.72852 318.46094 z "
     inkscape:label="blue" /><path
     id="path3"
     style="stroke-width:0.713633;fill:#028121;fill-opacity:1"
     d="M 408.72852 318.46094 L 328.9043 384.24023 C 344.461 461.22926 338.97989 546.93021 288.62109 628.60938 L 519.56836 438.29492 C 487.1303 392.32521 448.67852 351.9954 408.72852 318.46094 z "
     inkscape:label="green" /><path
     id="path4"
     style="stroke-width:0.713633;fill:#ffee00;fill-opacity:1"
     d="M 408.72852 318.46094 L 328.9043 384.24023 C 339.25864 435.48315 340.34272 490.5827 325.04883 545.79688 L 494.9375 405.79688 C 468.36268 373.1258 438.97269 343.84823 408.72852 318.46094 z "
     inkscape:label="yellow" /><path
     id="path5"
     style="stroke-width:0.713633;fill:#ff8d00;fill-opacity:1"
     d="M 408.72852 318.46094 L 328.9043 384.24023 C 335.39593 416.36685 338.22672 450.00591 335.67383 484.24609 L 468.17188 375.06055 C 449.1382 354.53689 429.14007 335.59462 408.72852 318.46094 z "
     inkscape:label="orange" /><path
     id="path6"
     style="stroke-width:0.713633;fill:#e50000;fill-opacity:1"
     d="M 408.72852 318.46094 L 328.9043 384.24023 C 332.02823 399.70038 334.29639 415.50914 335.53516 431.57031 L 439.42969 345.95312 C 429.34198 336.35867 419.09426 327.16205 408.72852 318.46094 z "
     inkscape:label="red" /><path
     id="rear_sail"
     d="m 267.7,229.5 c 128.6,55 305,208.1 337.4,412 -148.3,-59.8 -261.2,-27.9 -339.8,20.6 119.9,-152.4 66.1,-325.7 2.4,-432.6 z"
     style="fill:none;stroke:#000000;stroke-width:18px;stroke-linecap:round;stroke-linejoin:round" /><path
     id="hull"
     d="m 242.4,752.2 -22.9,-43.8 590,-38 c -46.4,42.2 -106,76.4 -166.3,104.4"
     style="fill:none;stroke:#000000;stroke-width:18px;stroke-linecap:round;stroke-linejoin:round" /><path
     id="front_sail"
     d="M 454.4,300.4 C 554.8,331.1 695.2,479.4 743,638.8 716.8,628.5 697.2,618 660.4,627.4 624.8,497.9 561.1,374.2 454.4,300.4 Z"
     style="fill:none;stroke:#000000;stroke-width:18px;stroke-linecap:round;stroke-linejoin:round" /><path
     id="waves"
     d="m 174,794 c 20,0 50,-42 85,-48 20,0 35,42 85,48 35,0 50,-42 85,-42 35,0 50,42 85,42 35,0 50,-42 85,-42 35,0 50,42 85,42 35,0 50,-42 85,-42 35,0 50,42 85,42"
     style="fill:none;stroke:#000000;stroke-width:18px;stroke-linecap:round;stroke-linejoin:round" /></svg>
